<svg width="852.1924560546875px" height="122.021240234375px" xmlns="http://www.w3.org/2000/svg" viewBox="-176.09622802734373 13.9893798828125 852.1924560546875 122.021240234375" style="background: rgba(0, 0, 0, 0);" preserveAspectRatio="xMidYMid"><defs><filter id="editing-extrude-glow"><feFlood flood-color="#333333" result="flood-1"></feFlood><feMorphology operator="erode" radius="1" in="SourceAlpha" result="erode"></feMorphology><feComposite operator="in" in="flood-1" in2="erode" result="comp1"></feComposite><feConvolveMatrix order="3,3" divisor="1" in="comp1" result="convolve" kernelMatrix="0 0 0 1 1 1 0 0 0"></feConvolveMatrix><feOffset dx="-3" dy="0" in="convolve" result="extrude"></feOffset><feComposite operator="in" in="flood-1" in2="extrude" result="comp-extrude"></feComposite><feFlood flood-color="#000000" result="flood-2"></feFlood><feComposite operator="in" in="flood-2" in2="SourceAlpha" result="comp2"></feComposite><feMorphology operator="dilate" radius="1" in="comp2" result="dilate"></feMorphology><feOffset dx="-4.5" dy="0" in="dilate" result="offset"></feOffset><feGaussianBlur in="offset" stdDeviation="5.8" result="blur"></feGaussianBlur><feComponentTransfer in="blur" result="shadow"><feFuncA type="linear" slope="0.8" intercept="-0.2"></feFuncA></feComponentTransfer><feMerge><feMergeNode in="shadow"></feMergeNode><feMergeNode in="comp-extrude"></feMergeNode><feMergeNode in="SourceGraphic"></feMergeNode></feMerge></filter></defs><g filter="url(#editing-extrude-glow)"><g transform="translate(-54.92997807264328, 107.02218627929688)"><path d="M10.69-0.32L0.64-14.72L13.31-27.78L13.31-27.78Q15.36-29.82 17.92-29.82L17.92-29.82L17.92-29.82Q18.88-29.82 19.81-29.25L19.81-29.25L19.81-29.25Q20.74-28.67 21.12-27.58L21.12-27.58L18.75-25.28L9.34-15.55L15.30-7.55L15.30-7.55Q16.06-6.59 16.06-5.54L16.06-5.54L16.06-5.54Q16.06-4.48 15.74-3.62L15.74-3.62L15.74-3.62Q15.42-2.75 14.72-2.05L14.72-2.05L14.72-2.05Q13.31-0.45 10.69-0.32L10.69-0.32ZM28.48 0L21.12 0L32.70-42.24L46.08-42.24L49.02-18.11L60.93-42.24L72.13-42.24L73.28-10.62L73.28-10.62Q73.54-4.35 76.61-2.43L76.61-2.43L76.61-2.43Q75.90-1.15 73.86 0.06L73.86 0.06L73.86 0.06Q71.81 1.28 69.09 1.28L69.09 1.28L69.09 1.28Q66.37 1.28 64.77 0.51L64.77 0.51L64.77 0.51Q63.17-0.26 62.27-1.54L62.27-1.54L62.27-1.54Q60.67-3.84 60.67-8.26L60.67-8.26L60.67-28.03L48.06 0L40.13 0L35.65-28.74L28.48 0ZM82.14-1.92L82.14-1.92L82.14-1.92Q80.64-3.58 79.97-6.21L79.97-6.21L79.97-6.21Q79.30-8.83 79.30-13.12L79.30-13.12L79.30-13.12Q79.30-17.41 80.77-21.31L80.77-21.31L80.77-21.31Q82.24-25.22 84.93-28.03L84.93-28.03L84.93-28.03Q90.43-33.92 99.52-33.92L99.52-33.92L99.52-33.92Q102.78-33.92 105.15-32.83L105.15-32.83L116.10-33.92L111.36-8.96L111.36-8.96Q111.17-8.19 111.17-6.78L111.17-6.78L111.17-6.78Q111.17-5.38 112.03-4.48L112.03-4.48L112.03-4.48Q112.90-3.58 114.18-3.46L114.18-3.46L114.18-3.46Q113.54-1.28 111.20 0L111.20 0L111.20 0Q108.86 1.28 106.24 1.28L106.24 1.28L106.24 1.28Q103.62 1.28 101.86 0.29L101.86 0.29L101.86 0.29Q100.10-0.70 99.58-2.37L99.58-2.37L99.58-2.37Q98.56-0.77 96.38 0.26L96.38 0.26L96.38 0.26Q94.21 1.28 91.30 1.28L91.30 1.28L91.30 1.28Q88.38 1.28 86.02 0.51L86.02 0.51L86.02 0.51Q83.65-0.26 82.14-1.92ZM95.65-27.90L95.65-27.90L95.65-27.90Q94.91-26.75 94.27-24.80L94.27-24.80L94.27-24.80Q93.63-22.85 92.58-17.63L92.58-17.63L92.58-17.63Q91.52-12.42 91.52-8.70L91.52-8.70L91.52-8.70Q91.52-4.99 92.10-3.90L92.10-3.90L92.10-3.90Q92.67-2.82 93.70-2.82L93.70-2.82L93.70-2.82Q95.74-2.82 97.25-4.77L97.25-4.77L97.25-4.77Q98.75-6.72 99.33-10.18L99.33-10.18L102.72-28.93L102.72-28.93Q101.38-30.08 99.81-30.08L99.81-30.08L99.81-30.08Q98.24-30.08 97.31-29.57L97.31-29.57L97.31-29.57Q96.38-29.06 95.65-27.90ZM120.58-6.40L120.58-6.40L120.58-6.40Q120.58-8.13 121.47-12.48L121.47-12.48L124.86-29.76L121.09-29.76L121.34-31.68L121.34-31.68Q129.02-33.98 136.45-39.62L136.45-39.62L139.52-39.62L137.98-32.64L142.98-32.64L142.40-29.76L137.47-29.76L134.21-12.48L134.21-12.48Q133.38-8.51 133.38-7.17L133.38-7.17L133.38-7.17Q133.38-4.10 136.06-3.46L136.06-3.46L136.06-3.46Q135.42-1.28 133.12 0L133.12 0L133.12 0Q130.82 1.28 127.55 1.28L127.55 1.28L127.55 1.28Q124.29 1.28 122.43-0.77L122.43-0.77L122.43-0.77Q120.58-2.82 120.58-6.40ZM143.68-6.40L143.68-6.40L143.68-6.40Q143.68-8.13 144.58-12.48L144.58-12.48L147.97-29.76L144.19-29.76L144.45-31.68L144.45-31.68Q152.13-33.98 159.55-39.62L159.55-39.62L162.62-39.62L161.09-32.64L166.08-32.64L165.50-29.76L160.58-29.76L157.31-12.48L157.31-12.48Q156.48-8.51 156.48-7.17L156.48-7.17L156.48-7.17Q156.48-4.10 159.17-3.46L159.17-3.46L159.17-3.46Q158.53-1.28 156.22 0L156.22 0L156.22 0Q153.92 1.28 150.66 1.28L150.66 1.28L150.66 1.28Q147.39 1.28 145.54-0.77L145.54-0.77L145.54-0.77Q143.68-2.82 143.68-6.40ZM197.95-7.10L197.95-7.10L197.95-7.10Q197.95-4.29 200.83-3.46L200.83-3.46L200.83-3.46Q200.13-1.09 197.38 0.19L197.38 0.19L197.38 0.19Q195.07 1.28 192.54 1.28L192.54 1.28L192.54 1.28Q190.02 1.28 188.70 0.61L188.70 0.61L188.70 0.61Q187.39-0.06 186.69-1.15L186.69-1.15L186.69-1.15Q185.54-2.82 185.54-5.95L185.54-5.95L185.54-5.95Q185.54-7.81 186.56-12.93L186.56-12.93L187.46-17.79L187.46-17.79Q188.54-23.36 188.54-25.41L188.54-25.41L188.54-25.41Q188.54-28.99 186.56-28.99L186.56-28.99L186.56-28.99Q184.06-28.99 182.46-25.34L182.46-25.34L182.46-25.34Q181.82-23.94 181.38-21.82L181.38-21.82L177.02 0L164.16 1.28L173.18-44.80L186.05-46.08L185.54-43.52L185.54-43.52Q183.74-33.66 182.21-30.34L182.21-30.34L182.21-30.34Q185.79-33.92 192.38-33.92L192.38-33.92L192.38-33.92Q199.36-33.92 200.64-29.31L200.64-29.31L200.64-29.31Q201.09-27.84 201.09-26.56L201.09-26.56L201.09-26.56Q201.09-25.28 200.99-24.29L200.99-24.29L200.99-24.29Q200.90-23.30 200.58-21.50L200.58-21.50L199.74-16.90L198.27-9.66L198.27-9.66Q197.95-8.19 197.95-7.10ZM231.94-10.82L231.94-10.82L231.94-10.82Q233.54-9.73 233.54-7.33L233.54-7.33L233.54-7.33Q233.54-4.93 232.32-3.39L232.32-3.39L232.32-3.39Q231.10-1.86 229.12-0.83L229.12-0.83L229.12-0.83Q225.02 1.28 220.61 1.28L220.61 1.28L220.61 1.28Q216.19 1.28 213.60 0.32L213.60 0.32L213.60 0.32Q211.01-0.64 209.28-2.43L209.28-2.43L209.28-2.43Q205.89-5.82 205.89-12.03L205.89-12.03L205.89-12.03Q205.89-21.70 211.14-27.58L211.14-27.58L211.14-27.58Q216.77-33.92 226.56-33.92L226.56-33.92L226.56-33.92Q232.64-33.92 235.65-31.36L235.65-31.36L235.65-31.36Q237.89-29.44 237.89-26.30L237.89-26.30L237.89-26.30Q237.89-15.04 218.43-15.04L218.43-15.04L218.43-15.04Q218.18-13.38 218.18-11.97L218.18-11.97L218.18-11.97Q218.18-9.02 219.49-7.90L219.49-7.90L219.49-7.90Q220.80-6.78 223.23-6.78L223.23-6.78L223.23-6.78Q225.66-6.78 228.26-7.90L228.26-7.90L228.26-7.90Q230.85-9.02 231.94-10.82ZM218.88-17.79L218.88-17.79L218.88-17.79Q223.42-17.79 226.05-20.61L226.05-20.61L226.05-20.61Q228.67-23.30 228.67-27.58L228.67-27.58L228.67-27.58Q228.67-29.06 228.13-29.86L228.13-29.86L228.13-29.86Q227.58-30.66 226.50-30.66L226.50-30.66L226.50-30.66Q225.41-30.66 224.48-30.24L224.48-30.24L224.48-30.24Q223.55-29.82 222.59-28.42L222.59-28.42L222.59-28.42Q220.22-25.22 218.88-17.79ZM287.81-10.69L287.81-10.69Q283.58-4.86 279.52-1.79L279.52-1.79L279.52-1.79Q275.46 1.28 271.26 1.28L271.26 1.28L271.26 1.28Q267.07 1.28 265.60 0.45L265.60 0.45L265.60-13.63L265.60-13.63Q261.95-3.90 255.42-0.13L255.42-0.13L255.42-0.13Q253.06 1.28 250.82 1.28L250.82 1.28L250.82 1.28Q246.53 1.28 244.67 0.45L244.67 0.45L244.67 0.45Q244.22-14.21 243.84-18.27L243.84-18.27L243.84-18.27Q243.46-22.34 243.14-24.83L243.14-24.83L243.14-24.83Q242.50-29.82 240.32-31.87L240.32-31.87L240.32-31.87Q243.07-33.92 246.91-33.92L246.91-33.92L246.91-33.92Q254.34-33.92 255.36-24.70L255.36-24.70L255.36-24.70Q255.62-22.53 255.62-20.22L255.62-20.22L255.62-20.22Q255.62-16.77 254.85-4.74L254.85-4.74L254.85-4.74Q256.38-5.44 258.02-7.97L258.02-7.97L258.02-7.97Q259.65-10.50 260.99-13.95L260.99-13.95L260.99-13.95Q264-21.95 264-28.86L264-28.86L264-28.86Q264-29.95 263.71-31.10L263.71-31.10L263.71-31.10Q263.42-32.26 263.10-32.58L263.10-32.58L263.10-32.58Q265.34-33.92 268.77-33.92L268.77-33.92L268.77-33.92Q272.19-33.92 273.82-31.58L273.82-31.58L273.82-31.58Q275.46-29.25 275.90-24.96L275.90-24.96L275.90-24.96Q276.42-19.52 276.42-16.26L276.42-16.26L276.42-16.26Q276.42-11.71 275.97-4.99L275.97-4.99L275.97-4.99Q279.17-7.30 281.79-14.85L281.79-14.85L281.79-14.85Q284.42-22.40 284.42-27.78L284.42-27.78L284.42-27.78Q284.42-30.14 284.03-31.55L284.03-31.55L284.03-31.55Q286.14-33.92 289.79-33.92L289.79-33.92L289.79-33.92Q292.03-33.92 293.66-32.70L293.66-32.70L293.66-32.70Q295.30-31.49 295.30-29.22L295.30-29.22L295.30-29.22Q295.30-26.94 294.62-24.51L294.62-24.51L294.62-24.51Q293.95-22.08 292.86-19.58L292.86-19.58L292.86-19.58Q290.75-14.59 287.81-10.69L287.81-10.69ZM339.33-33.92L339.33-33.92L339.33-33.92Q334.14-33.92 330.37-35.65L330.37-35.65L328.32-25.28L340.67-25.28L340.67-25.28Q340.67-21.89 338.98-19.74L338.98-19.74L338.98-19.74Q337.28-17.60 334.21-17.60L334.21-17.60L334.21-17.60Q330.88-17.60 327.81-18.82L327.81-18.82L327.81-18.82Q327.17-19.07 327.10-19.14L327.10-19.14L323.46 0L309.50 0L317.63-42.24L346.18-42.24L346.18-42.24Q346.18-38.34 344.35-36.13L344.35-36.13L344.35-36.13Q342.53-33.92 339.33-33.92ZM358.08 1.28L358.08 1.28L358.08 1.28Q344 1.28 344-11.97L344-11.97L344-11.97Q344-21.38 349.18-27.46L349.18-27.46L349.18-27.46Q354.69-33.92 364.22-33.92L364.22-33.92L364.22-33.92Q371.14-33.92 374.66-30.72L374.66-30.72L374.66-30.72Q378.18-27.52 378.18-20.80L378.18-20.80L378.18-20.80Q378.18-10.56 372.67-4.61L372.67-4.61L372.67-4.61Q367.30 1.28 358.08 1.28ZM359.74-26.56L359.74-26.56L359.74-26.56Q358.98-24.83 358.37-22.24L358.37-22.24L358.37-22.24Q357.76-19.65 356.99-15.55L356.99-15.55L356.99-15.55Q356.22-11.46 356.22-6.40L356.22-6.40L356.22-6.40Q356.22-4.74 356.77-3.65L356.77-3.65L356.77-3.65Q357.31-2.56 358.78-2.56L358.78-2.56L358.78-2.56Q360.26-2.56 361.18-3.26L361.18-3.26L361.18-3.26Q362.11-3.97 362.82-5.63L362.82-5.63L362.82-5.63Q364.10-8.58 365.12-14.05L365.12-14.05L365.12-14.05Q366.14-19.52 366.24-21.89L366.24-21.89L366.24-21.89Q366.34-24.26 366.34-26.02L366.34-26.02L366.34-26.02Q366.34-27.78 365.82-28.93L365.82-28.93L365.82-28.93Q365.31-30.08 363.87-30.08L363.87-30.08L363.87-30.08Q362.43-30.08 361.47-29.18L361.47-29.18L361.47-29.18Q360.51-28.29 359.74-26.56ZM401.98-17.98L401.98-17.98L401.98-17.98Q404.29-22.08 404.29-26.24L404.29-26.24L404.29-26.24Q404.29-28.99 402.30-28.99L402.30-28.99L402.30-28.99Q400.77-28.99 399.17-26.37L399.17-26.37L399.17-26.37Q397.50-23.74 396.99-20.35L396.99-20.35L393.66 0L380.42 1.28L386.94-32.64L397.50-33.92L396.35-27.46L396.35-27.46Q399.49-33.92 406.53-33.92L406.53-33.92L406.53-33.92Q410.24-33.92 412.26-32L412.26-32L412.26-32Q414.27-30.08 414.27-26.14L414.27-26.14L414.27-26.14Q414.27-22.21 411.68-19.71L411.68-19.71L411.68-19.71Q409.09-17.22 404.67-17.22L404.67-17.22L404.67-17.22Q402.75-17.22 401.98-17.98ZM419.84-26.75L419.84-26.75L419.84-26.75Q422.02-29.82 425.31-31.87L425.31-31.87L425.31-31.87Q428.61-33.92 432.64-33.92L432.64-33.92L432.64-33.92Q436.67-33.92 438.59-32.64L438.59-32.64L451.14-33.92L446.78-9.34L446.78-9.34Q444.54 3.20 439.81 8.13L439.81 8.13L439.81 8.13Q435.26 12.80 426.43 12.80L426.43 12.80L426.43 12.80Q419.71 12.80 415.87 10.69L415.87 10.69L415.87 10.69Q412.03 8.58 412.03 5.06L412.03 5.06L412.03 5.06Q412.03 2.43 414.02 0.93L414.02 0.93L414.02 0.93Q416-0.58 419.07-0.58L419.07-0.58L419.07-0.58Q421.76-0.58 423.81 0.64L423.81 0.64L423.81 0.64Q425.02 1.28 425.60 2.18L425.60 2.18L425.60 2.18Q424.13 3.46 424.13 5.57L424.13 5.57L424.13 5.57Q424.13 8.32 426.69 8.32L426.69 8.32L426.69 8.32Q430.98 8.32 433.41-1.79L433.41-1.79L433.41-1.79Q434.11-4.54 434.69-7.30L434.69-7.30L434.69-7.30Q431.81-3.78 425.28-3.78L425.28-3.78L425.28-3.78Q420.74-3.78 418.11-5.95L418.11-5.95L418.11-5.95Q415.49-8.13 415.49-13.25L415.49-13.25L415.49-13.25Q415.49-16.45 416.58-20.06L416.58-20.06L416.58-20.06Q417.66-23.68 419.84-26.75ZM428.16-13.06L428.16-13.06L428.16-13.06Q428.16-8.70 430.40-8.70L430.40-8.70L430.40-8.70Q431.94-8.70 433.41-10.37L433.41-10.37L433.41-10.37Q434.56-11.71 435.01-13.70L435.01-13.70L438.27-30.14L438.27-30.14Q437.95-30.21 437.63-30.34L437.63-30.34L437.63-30.34Q436.99-30.59 436.16-30.59L436.16-30.59L436.16-30.59Q432.26-30.59 429.95-24.19L429.95-24.19L429.95-24.19Q428.16-19.20 428.16-13.06ZM479.55-10.82L479.55-10.82L479.55-10.82Q481.15-9.73 481.15-7.33L481.15-7.33L481.15-7.33Q481.15-4.93 479.94-3.39L479.94-3.39L479.94-3.39Q478.72-1.86 476.74-0.83L476.74-0.83L476.74-0.83Q472.64 1.28 468.22 1.28L468.22 1.28L468.22 1.28Q463.81 1.28 461.22 0.32L461.22 0.32L461.22 0.32Q458.62-0.64 456.90-2.43L456.90-2.43L456.90-2.43Q453.50-5.82 453.50-12.03L453.50-12.03L453.50-12.03Q453.50-21.70 458.75-27.58L458.75-27.58L458.75-27.58Q464.38-33.92 474.18-33.92L474.18-33.92L474.18-33.92Q480.26-33.92 483.26-31.36L483.26-31.36L483.26-31.36Q485.50-29.44 485.50-26.30L485.50-26.30L485.50-26.30Q485.50-15.04 466.05-15.04L466.05-15.04L466.05-15.04Q465.79-13.38 465.79-11.97L465.79-11.97L465.79-11.97Q465.79-9.02 467.10-7.90L467.10-7.90L467.10-7.90Q468.42-6.78 470.85-6.78L470.85-6.78L470.85-6.78Q473.28-6.78 475.87-7.90L475.87-7.90L475.87-7.90Q478.46-9.02 479.55-10.82ZM466.50-17.79L466.50-17.79L466.50-17.79Q471.04-17.79 473.66-20.61L473.66-20.61L473.66-20.61Q476.29-23.30 476.29-27.58L476.29-27.58L476.29-27.58Q476.29-29.06 475.74-29.86L475.74-29.86L475.74-29.86Q475.20-30.66 474.11-30.66L474.11-30.66L474.11-30.66Q473.02-30.66 472.10-30.24L472.10-30.24L472.10-30.24Q471.17-29.82 470.21-28.42L470.21-28.42L470.21-28.42Q467.84-25.22 466.50-17.79ZM488.70-6.40L488.70-6.40L488.70-6.40Q488.70-8.13 489.60-12.48L489.60-12.48L492.99-29.76L489.22-29.76L489.47-31.68L489.47-31.68Q497.15-33.98 504.58-39.62L504.58-39.62L507.65-39.62L506.11-32.64L511.10-32.64L510.53-29.76L505.60-29.76L502.34-12.48L502.34-12.48Q501.50-8.51 501.50-7.17L501.50-7.17L501.50-7.17Q501.50-4.10 504.19-3.46L504.19-3.46L504.19-3.46Q503.55-1.28 501.25 0L501.25 0L501.25 0Q498.94 1.28 495.68 1.28L495.68 1.28L495.68 1.28Q492.42 1.28 490.56-0.77L490.56-0.77L490.56-0.77Q488.70-2.82 488.70-6.40ZM511.81-6.40L511.81-6.40L511.81-6.40Q511.81-8.13 512.70-12.48L512.70-12.48L516.10-29.76L512.32-29.76L512.58-31.68L512.58-31.68Q520.26-33.98 527.68-39.62L527.68-39.62L530.75-39.62L529.22-32.64L534.21-32.64L533.63-29.76L528.70-29.76L525.44-12.48L525.44-12.48Q524.61-8.51 524.61-7.17L524.61-7.17L524.61-7.17Q524.61-4.10 527.30-3.46L527.30-3.46L527.30-3.46Q526.66-1.28 524.35 0L524.35 0L524.35 0Q522.05 1.28 518.78 1.28L518.78 1.28L518.78 1.28Q515.52 1.28 513.66-0.77L513.66-0.77L513.66-0.77Q511.81-2.82 511.81-6.40ZM559.55-10.82L559.55-10.82L559.55-10.82Q561.15-9.73 561.15-7.33L561.15-7.33L561.15-7.33Q561.15-4.93 559.94-3.39L559.94-3.39L559.94-3.39Q558.72-1.86 556.74-0.83L556.74-0.83L556.74-0.83Q552.64 1.28 548.22 1.28L548.22 1.28L548.22 1.28Q543.81 1.28 541.22 0.32L541.22 0.32L541.22 0.32Q538.62-0.64 536.90-2.43L536.90-2.43L536.90-2.43Q533.50-5.82 533.50-12.03L533.50-12.03L533.50-12.03Q533.50-21.70 538.75-27.58L538.75-27.58L538.75-27.58Q544.38-33.92 554.18-33.92L554.18-33.92L554.18-33.92Q560.26-33.92 563.26-31.36L563.26-31.36L563.26-31.36Q565.50-29.44 565.50-26.30L565.50-26.30L565.50-26.30Q565.50-15.04 546.05-15.04L546.05-15.04L546.05-15.04Q545.79-13.38 545.79-11.97L545.79-11.97L545.79-11.97Q545.79-9.02 547.10-7.90L547.10-7.90L547.10-7.90Q548.42-6.78 550.85-6.78L550.85-6.78L550.85-6.78Q553.28-6.78 555.87-7.90L555.87-7.90L555.87-7.90Q558.46-9.02 559.55-10.82ZM546.50-17.79L546.50-17.79L546.50-17.79Q551.04-17.79 553.66-20.61L553.66-20.61L553.66-20.61Q556.29-23.30 556.29-27.58L556.29-27.58L556.29-27.58Q556.29-29.06 555.74-29.86L555.74-29.86L555.74-29.86Q555.20-30.66 554.11-30.66L554.11-30.66L554.11-30.66Q553.02-30.66 552.10-30.24L552.10-30.24L552.10-30.24Q551.17-29.82 550.21-28.42L550.21-28.42L550.21-28.42Q547.84-25.22 546.50-17.79ZM563.01 9.54L563.01 9.54L563.01 9.54Q563.01 8.38 563.58 6.72L563.58 6.72L584.51-51.07L584.51-51.07Q585.66-51.26 587.94-51.26L587.94-51.26L587.94-51.26Q590.21-51.26 591.58-50.66L591.58-50.66L591.58-50.66Q592.96-50.05 592.96-48.19L592.96-48.19L592.96-48.19Q592.96-46.59 591.94-43.65L591.94-43.65L571.58 12.54L571.58 12.54Q571.07 12.80 568.06 12.80L568.06 12.80L568.06 12.80Q563.01 12.80 563.01 9.54ZM588.74-2.62L588.74-2.62L592.96-6.78L600.51-14.66L596.29-20.35L596.29-20.35Q595.33-21.57 594.56-22.59L594.56-22.59L594.56-22.59Q593.79-23.62 593.79-24.64L593.79-24.64L593.79-24.64Q593.79-25.66 594.11-26.56L594.11-26.56L594.11-26.56Q594.43-27.46 595.14-28.16L595.14-28.16L595.14-28.16Q596.61-29.76 599.17-29.89L599.17-29.89L609.22-15.49L596.54-2.43L596.54-2.43Q594.50-0.38 591.94-0.38L591.94-0.38L591.94-0.38Q590.98-0.38 590.05-0.96L590.05-0.96L590.05-0.96Q589.12-1.54 588.74-2.62Z" fill="#eb6c6c"></path></g></g><style>text {
  font-size: 64px;
  font-family: Arial Black;
  dominant-baseline: central;
  text-anchor: middle;
}</style></svg>